<svg xmlns="http://www.w3.org/2000/svg" xmlns:xlink="http://www.w3.org/1999/xlink" aria-hidden="true" role="img" class="iconify iconify--logos" width="31.88" height="32" preserveAspectRatio="xMidYMid meet" viewBox="0 0 256 257"><defs><linearGradient id="IconifyId1813088fe130d6a3b6" x1="-.828%" x2="57.636%" y1="7.652%" y2="78.411%"><stop offset="0%" stop-color="#41D1FF"></stop><stop offset="100%" stop-color="#BD34FE"></stop></linearGradient><linearGradient id="IconifyId1813088fe130d6a3b7" x1="43.376%" x2="50.316%" y1="2.242%" y2="89.03%"><stop offset="0%" stop-color="#FFEA83"></stop><stop offset="8.333%" stop-color="#FFDD35"></stop><stop offset="100%" stop-color="#FFA800"></stop></linearGradient></defs><path fill="url(#IconifyId1813088fe130d6a3b6)" d="M255.153 37.342c-2.034-14.83-15.724-24.923-30.13-22.295L13.528 55.33C-2.034 57.484-4.266 76.43 9.13 87.23l91.32 74.184c1.284 1.043 2.963 1.53 4.64 1.38l43.425-3.93c14.033-1.272 24.49-14.13 22.53-28.16L255.153 37.342z"></path><path fill="url(#IconifyId1813088fe130d6a3b7)" d="M185.47 132.817l-43.424 3.93c-1.678.15-3.357-.337-4.64-1.38L46.086 61.183c-13.394-10.8-11.163-29.747 4.4-31.9l211.495-40.282c14.405-2.628 28.096 7.465 30.13 22.295l15.896 115.853c1.96 14.03-8.5 26.888-22.53 28.16l-105.37 9.54c-15.91 1.44-28.59-12.83-24.6-28.15l19.95-77.847c3.1-12.1 16.6-18.4 27.5-13.7l12.6 5.4c10.9 4.7 17.2 16.3 14.1 28.4z"></path></svg>